<svg xmlns="http://www.w3.org/2000/svg" width="265" height="64" viewBox="0 0 265 64">
    <g fill="none" fill-rule="evenodd">
        <g fill="#FFF">
            <path d="M65.954 42.815c0 7.842-6.344 14.199-14.168 14.199-7.824 0-14.167-6.357-14.167-14.199s6.343-14.199 14.167-14.199 14.168 6.357 14.168 14.199m-34.14.03c0 11.136 8.89 19.988 20 19.988.99 0 1.962-.07 2.91-.207 1.74-.248 3.401-.717 4.959-1.378.336-.143.666-.297.992-.457 2.513 1.341 6.073 2.323 11.083 2.124 0 0-4.431-2.275-5.234-6.504 3.256-3.55 5.234-8.301 5.234-13.566 0-11.135-8.833-20.1-19.944-20.1-11.11 0-20 8.965-20 20.1M173.326 37.495c-2.913 0-5.283 2.375-5.283 5.294 0 2.92 2.37 5.295 5.283 5.295 2.912 0 5.281-2.375 5.281-5.295 0-2.919-2.369-5.294-5.281-5.294zm-6.414 16.073l.755.44c.664.35 1.386.651 2.113.878l.508.158.822 3.531 4.39.03.836-3.475.92-.253c.702-.22 1.42-.52 2.105-.885l.546-.317 2.969 1.855 3.13-3.092-1.818-2.986.484-.874a12.6 12.6 0 0 0 .842-2.13l.18-.629 3.354-.782.031-4.401-3.427-.833-.292-.95c-.25-.72-.545-1.39-.892-2.018l-.339-.555 1.882-3.034-3.085-3.137-3.233 1.984-.478-.363a12.408 12.408 0 0 0-1.991-.816l-.844-.245-.84-3.61-4.39-.031-.656 2.693a1.915 1.915 0 0 1-1.248 1.375l-.668.223-.58.306a1.9 1.9 0 0 1-1.89-.067l-2.333-1.455-3.13 3.093 2.036 3.33-.26.527c-.32.595-.6 1.26-.833 1.973l-.211.694-3.775.877-.031 4.401 3.95.955v.616c.222.716.499 1.4.826 2.036l.303.556-2.01 3.228 3.085 3.136 3.187-1.957zm3.81 10.362a2.262 2.262 0 0 1-2.211-1.759l-.697-2.994a17.613 17.613 0 0 1-2.107-.908l-2.629 1.645a2.255 2.255 0 0 1-2.808-.322l-3.683-3.69a2.272 2.272 0 0 1-.321-2.815l1.73-2.777c-.295-.62-.553-1.26-.775-1.918l-3.207-.75a2.265 2.265 0 0 1-1.756-2.216v-5.217c0-1.064.723-1.976 1.757-2.217l3.28-.763c.225-.642.476-1.249.753-1.818l-1.782-2.865a2.268 2.268 0 0 1 .322-2.813l3.683-3.692a2.26 2.26 0 0 1 2.805-.324l2.792 1.74.734-.36c.11-.059.222-.106.336-.145l.804-.269.769-3.218a2.263 2.263 0 0 1 2.212-1.762h5.205c1.062 0 1.971.724 2.212 1.76l.71 3.054c.74.242 1.44.523 2.103.84l2.62-1.637a2.256 2.256 0 0 1 2.808.323l3.683 3.691c.751.751.884 1.907.323 2.811l-1.547 2.495c.372.728.695 1.49.975 2.292l2.822.66a2.266 2.266 0 0 1 1.755 2.216v5.217a2.265 2.265 0 0 1-1.756 2.217l-2.751.641a17.569 17.569 0 0 1-.99 2.403l1.491 2.402c.562.904.43 2.06-.322 2.812l-3.684 3.692a2.256 2.256 0 0 1-2.807.323l-2.446-1.529c-.768.38-1.544.695-2.332.949l-.655 2.834a2.263 2.263 0 0 1-2.213 1.761h-5.205zM185.596 9.048a2.983 2.983 0 0 0 0 5.966 2.983 2.983 0 0 0 0-5.966zM183.65 20.91l1.104-1.728.728.047a7.02 7.02 0 0 0 1.282-.084l.522-.1 1.264 1.566 1.935-.925-.425-1.958.561-.503c.305-.296.597-.637.837-.977l.316-.45 1.964.206.716-2.025-1.697-1.092.025-.747a7.24 7.24 0 0 0-.103-1.24l-.118-.533 1.596-1.296-.923-1.94-2.152.474-.305-.456a7.342 7.342 0 0 0-.885-.77l-.553-.391.22-2.117-2.019-.718-.764 1.186a1.41 1.41 0 0 1-1.185.654l-.43-.004-.336.055a1.4 1.4 0 0 1-1.303-.505l-.88-1.088-1.936.925.479 2.183-.357.353c-.287.264-.56.567-.818.908l-.344.473-2.213-.235-.716 2.024 2.017 1.296-.178.512c-.01.412.012.817.067 1.203l.088.525-1.697 1.374.923 1.939 2.099-.462.446.52c.286.304.621.603.961.854l.384.283-.218 2.083 2.02.7zm-.096 3.031c-.176 0-.35-.03-.518-.088l-2.725-.945a1.572 1.572 0 0 1-1.05-1.656l.158-1.523c-.244-.203-.481-.419-.707-.645l-1.5.343a1.56 1.56 0 0 1-1.768-.85l-1.26-2.6a1.576 1.576 0 0 1 .427-1.917l1.274-1.031c-.026-.273-.04-.551-.043-.83l-1.395-.881a1.573 1.573 0 0 1-.648-1.852l.943-2.73a1.576 1.576 0 0 1 1.653-1.053l1.684.178c.167-.204.338-.398.513-.58l-.376-1.653a1.57 1.57 0 0 1 .848-1.77l2.595-1.264a1.566 1.566 0 0 1 1.912.426l1.035 1.281.275-.034c.074-.011.154-.017.234-.017l.303.004.89-1.396a1.565 1.565 0 0 1 1.848-.65l2.723.945a1.573 1.573 0 0 1 1.051 1.657l-.162 1.551c.252.198.49.405.712.617l1.499-.343a1.56 1.56 0 0 1 1.768.85l1.26 2.6a1.573 1.573 0 0 1-.426 1.917l-1.122.912c.042.346.067.703.074 1.065l1.21.765c.623.394.89 1.155.649 1.852l-.943 2.73a1.574 1.574 0 0 1-1.654 1.054l-1.38-.146c-.226.289-.477.572-.746.844l.307 1.356a1.57 1.57 0 0 1-.848 1.77l-2.595 1.263a1.566 1.566 0 0 1-1.913-.427l-.894-1.108a9.784 9.784 0 0 1-1.048.057h-.032l-.76 1.213c-.292.463-.79.74-1.332.74z"/>
            <path d="M57.07 42.815a5.29 5.29 0 0 1-5.284 5.296 5.29 5.29 0 0 1-5.284-5.296 5.29 5.29 0 0 1 5.284-5.296 5.29 5.29 0 0 1 5.285 5.296M13.186 40.52c3.56 0 5.73-2.62 5.73-5.966 0-3.401-2.17-5.743-5.73-5.743h-7.51v11.71h7.51zm.89 16.951c3.394 0 6.009-2.62 6.009-6.078 0-3.401-3.227-5.855-6.843-5.855H5.619v11.933h8.457zM0 24.628c0-.557.445-1.059 1.058-1.059H13.52c6.732 0 11.572 4.46 11.572 10.316 0 4.293-3.171 7.36-5.786 8.865 2.948 1.227 6.954 3.96 6.954 9.09 0 6.244-5.118 10.76-12.128 10.76H1.058A1.058 1.058 0 0 1 0 61.542V24.628zM84.506 28.81h-9.069a1.057 1.057 0 0 1-1.057-1.059V24.63c0-.558.445-1.06 1.057-1.06h23.924c.612 0 1.057.502 1.057 1.06v3.122c0 .558-.445 1.06-1.057 1.06h-9.069v32.73c0 .558-.5 1.06-1.057 1.06h-3.672c-.556 0-1.057-.502-1.057-1.06v-32.73zM102.864 24.907c-.223-.78.222-1.338 1.001-1.338h3.728c.445 0 .89.39 1.001.78l6.732 25.594h.223l9.068-26.318c.112-.334.5-.613.946-.613h1.002c.445 0 .834.279.946.613l9.18 26.318h.222l6.62-25.593c.112-.39.557-.78 1.002-.78h3.728c.779 0 1.223.557 1.001 1.337l-10.515 37.47a1.07 1.07 0 0 1-1.002.781h-.89c-.389 0-.834-.278-.945-.613l-9.793-27.712h-.277l-9.626 27.712c-.11.335-.556.613-.945.613h-.89a1.07 1.07 0 0 1-1.002-.78l-10.515-37.47zM217.134 42.528c3.617 0 6.788-3.067 6.788-6.915 0-3.624-3.171-6.635-6.788-6.635h-9.903v13.55h9.903zm-15.745-17.9c0-.557.446-1.059 1.058-1.059h15.133c6.676 0 12.128 5.297 12.128 11.933 0 5.13-3.394 9.367-8.234 11.319l7.622 14.163c.39.725 0 1.617-.946 1.617h-4.339c-.445 0-.779-.279-.89-.502l-7.4-14.776h-8.4V61.54c0 .558-.502 1.06-1.058 1.06h-3.616a1.058 1.058 0 0 1-1.058-1.06V24.63zM246.396 42.583L235.38 25.13c-.445-.724 0-1.56.946-1.56h4.73c.389 0 .778.222.945.501l7.845 13.326h.055l7.956-13.326c.112-.223.445-.502.89-.502h4.73c.945 0 1.39.837.945 1.561l-11.016 17.453 11.406 18.457c.445.78 0 1.56-.946 1.56h-4.284c-.446 0-.834-.278-.946-.501l-8.735-14.274h-.111l-8.624 14.274c-.167.223-.5.502-.946.502h-4.284c-1 0-1.446-.836-1-1.561l11.46-18.457z"/>
        </g>
    </g>
</svg>
