<svg xmlns="http://www.w3.org/2000/svg" width="61" height="61" viewBox="0 0 61 61">
    <path fill="#9B9B9B" fill-rule="evenodd" d="M45.29 23.29c-2.07 0-3.75 1.68-3.75 3.75 0 2.07 1.68 3.75 3.75 3.75 2.07 0 3.75-1.68 3.75-3.75 0-2.07-1.68-3.75-3.75-3.75zm-15 26.25c-2.19 0-4.304-.254-6.337-.688l-8.827 5.307.118-8.698C8.477 41.39 4.04 34.664 4.04 27.04c0-12.426 11.752-22.5 26.25-22.5 14.497 0 26.25 10.074 26.25 22.5 0 12.427-11.753 22.5-26.25 22.5zm0-48.75c-16.567 0-30 11.755-30 26.25 0 8.286 4.398 15.664 11.25 20.474V60.79l13.143-7.975c1.818.3 3.69.475 5.608.475 16.567 0 30-11.753 30-26.25 0-14.496-13.433-26.25-30-26.25zm-15 22.5c-2.07 0-3.75 1.68-3.75 3.75 0 2.07 1.68 3.75 3.75 3.75 2.07 0 3.75-1.68 3.75-3.75 0-2.07-1.68-3.75-3.75-3.75zm15 0c-2.07 0-3.75 1.68-3.75 3.75 0 2.07 1.68 3.75 3.75 3.75 2.07 0 3.75-1.68 3.75-3.75 0-2.07-1.68-3.75-3.75-3.75z"/>
</svg>
