<svg xmlns="http://www.w3.org/2000/svg" width="40" height="40" viewBox="0 0 40 40">
    <g fill="none" fill-rule="evenodd">
        <path fill="#9B9B9B" d="M9.72 31.15c-.49.228-.93-.244-.701-.702l2.226-4.244 2.82 2.825L9.72 31.15zm17.336-14.429l-11.24 11.247a9352.095 9352.095 0 0 0-3.512-3.515l11.215-11.222 3.537 3.49zm1.406-7.029l2.107 2.108a.995.995 0 0 1 0 1.406l-2.107 2.109-3.463-3.566 2.057-2.057a.993.993 0 0 1 1.406 0zM6.09 32.782c-.361.981.423 1.859 1.403 1.404l8.699-4.303c.375-.073.739-.219 1.029-.509l15.455-15.466a1.988 1.988 0 0 0 0-2.811l-3.512-3.515a1.987 1.987 0 0 0-2.81 0L10.899 23.047c-.291.291-.435.655-.51 1.03l-4.3 8.705z"/>
    </g>
</svg>
