<svg xmlns="http://www.w3.org/2000/svg" width="40" height="40" viewBox="0 0 40 40">
    <g fill="none" fill-rule="evenodd">
        <path fill="#9B9B9B" d="M30 12H10a1 1 0 1 1 0-2h20a1 1 0 0 1 0 2zm-1 20a2 2 0 0 1-2 2H13a2 2 0 0 1-2-2V14h18v18zM17 7a1 1 0 0 1 1-1h4a1 1 0 0 1 1 1v1h-6V7zm14 1h-6V6a2 2 0 0 0-2-2h-6a2 2 0 0 0-2 2v2H9a2 2 0 0 0-2 2v2a2 2 0 0 0 2 2v18a4 4 0 0 0 4 4h14a4 4 0 0 0 4-4V14a2 2 0 0 0 2-2v-2a2 2 0 0 0-2-2zM20 32a1 1 0 0 0 1-1V19a1 1 0 0 0-2 0v12a1 1 0 0 0 1 1zm-5 0a1 1 0 0 0 1-1V19a1 1 0 0 0-2 0v12a1 1 0 0 0 1 1zm10 0a1 1 0 0 0 1-1V19a1 1 0 0 0-2 0v12a1 1 0 0 0 1 1z"/>
    </g>
</svg>
