<svg xmlns="http://www.w3.org/2000/svg" xmlns:xlink="http://www.w3.org/1999/xlink" width="38" height="32" viewBox="0 0 38 32">
    <defs>
        <path id="a" d="M2.017 9.201C2.017 4.121 5.725 0 10.298 0c4.574 0 8.282 4.12 8.282 9.201 0 2.22-.709 4.256-1.885 5.846 2.162.747 3.725 2.779 3.725 5.196v3.68a5.522 5.522 0 0 1-5.52 5.522H5.698a5.52 5.52 0 0 1-5.52-5.521v-3.68c0-2.418 1.563-4.45 3.724-5.197-1.177-1.59-1.885-3.626-1.885-5.846zm1.84 0c0 4.066 2.884 7.362 6.441 7.362 3.558 0 6.442-3.296 6.442-7.362 0-4.065-2.884-7.36-6.442-7.36-3.557 0-6.44 3.295-6.44 7.36zm11.249 7.483c-1.356 1.078-3.013 1.719-4.808 1.719-1.794 0-3.45-.641-4.807-1.719-1.989.434-3.474 2.063-3.474 4.02v2.76c0 2.287 2.022 4.14 4.518 4.14h7.528c2.494 0 4.517-1.853 4.517-4.14v-2.76c0-1.957-1.485-3.586-3.474-4.02z"/>
        <path id="c" d="M0 .25v24.23h10.588V.25z"/>
    </defs>
    <g fill="none" fill-rule="evenodd">
        <path fill="#979797" d="M27.249 25.35c0 2.286-2.022 4.14-4.517 4.14h-7.529c-2.494 0-4.517-1.854-4.517-4.14v-2.761c0-1.957 1.485-3.585 3.473-4.019 1.358 1.078 3.014 1.718 4.809 1.718 1.794 0 3.45-.64 4.807-1.718 1.99.434 3.474 2.062 3.474 4.019v2.76zM12.527 11.086c0-4.065 2.883-7.361 6.44-7.361 3.558 0 6.442 3.296 6.442 7.36 0 4.066-2.884 7.362-6.441 7.362-3.558 0-6.441-3.296-6.441-7.361zm12.837 5.846c1.176-1.59 1.885-3.627 1.885-5.846 0-5.081-3.707-9.202-8.281-9.202-4.574 0-8.282 4.12-8.282 9.202 0 2.22.709 4.256 1.886 5.846-2.163.747-3.726 2.778-3.726 5.196v3.68a5.522 5.522 0 0 0 5.521 5.521h9.201a5.522 5.522 0 0 0 5.521-5.52v-3.681c0-2.418-1.563-4.45-3.725-5.196z"/>
        <g transform="translate(8.67 1.885)">
            <mask id="b" fill="#fff">
                <use xlink:href="#a"/>
            </mask>
            <use fill="#D8D8D8" xlink:href="#a"/>
            <path fill="#979797" d="M-5.344 34.965H25.94V-5.52H-5.344z" mask="url(#b)"/>
        </g>
        <path fill="#979797" d="M34.705 17.142c.881-1.317 1.362-2.926 1.362-4.57 0-4.233-3.11-7.676-6.934-7.676-.602 0-1.218.094-1.831.28l-.342.103.186.305c.23.375.448.802.665 1.305l.09.214.228-.055c.331-.08.67-.12 1.004-.12 2.703 0 4.903 2.532 4.903 5.643 0 2.934-1.913 5.349-4.45 5.618l-.465.048.27.384c.29.415.527.856.704 1.312l.084.22.23-.049a6.56 6.56 0 0 0 2.656-1.216c1.449.368 2.451 1.558 2.451 2.932v2.22c0 1.684-1.506 3.053-3.357 3.053h-1.783l-.052.21a6.039 6.039 0 0 1-.541 1.415l-.22.407h3.27a4.72 4.72 0 0 0 4.715-4.715v-2.96a4.708 4.708 0 0 0-2.843-4.308"/>
        <g transform="translate(.388 4.646)">
            <mask id="d" fill="#fff">
                <use xlink:href="#c"/>
            </mask>
            <path fill="#979797" d="M10.246.53A6.344 6.344 0 0 0 8.415.25C4.59.25 1.479 3.694 1.479 7.927c0 1.644.482 3.253 1.363 4.57A4.707 4.707 0 0 0 0 16.804v2.96a4.72 4.72 0 0 0 4.715 4.715h3.268l-.218-.406a6.121 6.121 0 0 1-.542-1.417l-.052-.208H5.387c-1.85 0-3.356-1.37-3.356-3.054v-2.22c0-1.374 1.002-2.564 2.452-2.932a6.544 6.544 0 0 0 2.656 1.216l.23.048.084-.218c.178-.46.415-.9.704-1.312l.27-.384-.466-.05c-2.537-.267-4.45-2.683-4.45-5.616 0-3.112 2.2-5.643 4.904-5.643.334 0 .672.04 1.004.12l.227.054.09-.214c.215-.498.431-.925.665-1.305l.187-.305-.342-.103z" mask="url(#d)"/>
        </g>
        <path fill="#FFF" d="M22 4.884h16v5H22z"/>
        <path fill="#979797" d="M29.032 1.384h2.2v12h-2.2z"/>
        <path fill="#979797" d="M36.132 6.284v2.2h-12v-2.2z"/>
    </g>
</svg>
